<?xml version="1.0" encoding="utf-8"?>
<!-- Generator: Adobe Illustrator 23.0.3, SVG Export Plug-In . SVG Version: 6.00 Build 0)  -->
<svg version="1.1" id="Capa_1" xmlns="http://www.w3.org/2000/svg" xmlns:xlink="http://www.w3.org/1999/xlink" x="0px" y="0px"
	 viewBox="0 0 1200 1200" enable-background="new 0 0 1200 1200" xml:space="preserve">
<g>
	<path fill="#141414" d="M450.75,520.844c-48.744-28.359-65.96-65.434-155.817-66.366c-92.084-0.955-133.305,47.132-150.801,67.743
		c-18.949,22.325-56.103,5.963-38.641-22.89c-9.421-4.93-16.996-13.96-21.359-20.077c-1.263-1.771,0.353-4.106,2.438-3.572
		c8.798,2.256,23.867,3.573,35.717,4.304c2.235-2.058,4.539-4.084,6.971-6.049c-8.679-6.507-14.71-17.059-18.008-24.088
		c-0.96-2.045,1.136-4.1,3.163-3.161c9.192,4.256,25.951,8.798,37.759,11.724c3.806-2.187,7.72-4.299,11.774-6.302
		c-8.08-8.376-12.705-20.509-14.786-27.22c-0.415-1.341,1.072-2.383,2.212-1.591c8.086,5.615,26.806,12.998,39.242,17.59
		c62.892-30.018,130.177-29.286,187.196-6.337c60.922,24.52,79.974,57.442,86.014,75.351
		C466.521,517.901,457.961,525.04,450.75,520.844z M184.49,538.532c18.638-15.6,36.705-15.969,38.304-15.969
		c0.246-0.005,0.209,0.005,0.284,0.005c2.937,0,5.366-2.327,5.467-5.285c0.107-3.023-2.258-5.564-5.28-5.666
		c-0.899-0.064-22.972-0.599-45.805,18.516c-2.322,1.942-2.627,5.398-0.685,7.714c1.081,1.295,2.638,1.963,4.205,1.963
		C182.217,539.811,183.468,539.394,184.49,538.532z M1018.335,538.532c1.02,0.861,2.274,1.279,3.508,1.279
		c1.568,0,3.125-0.669,4.205-1.963c1.942-2.317,1.639-5.772-0.683-7.714c-22.808-19.093-44.853-18.585-45.811-18.516
		c-3.013,0.102-5.361,2.627-5.27,5.639c0.097,3.012,2.536,5.376,5.627,5.312C980.072,522.456,998.947,522.306,1018.335,538.532z
		 M1121.364,475.682c-8.797,2.256-23.867,3.573-35.716,4.304c-2.234-2.058-4.54-4.084-6.972-6.049
		c8.679-6.507,14.711-17.059,18.009-24.088c0.959-2.045-1.136-4.1-3.164-3.161c-9.192,4.256-25.951,8.798-37.759,11.724
		c-3.806-2.187-7.719-4.299-11.774-6.302c8.08-8.376,12.705-20.509,14.787-27.22c0.415-1.341-1.073-2.383-2.212-1.591
		c-8.087,5.615-26.807,12.998-39.241,17.59c-62.892-30.018-130.179-29.286-187.197-6.337c-60.922,24.52-79.975,57.442-86.014,75.351
		c-2.698,7.999,5.862,15.137,13.074,10.942c48.743-28.359,65.961-65.434,155.817-66.366c92.083-0.955,133.305,47.132,150.8,67.743
		c18.949,22.325,56.103,5.963,38.641-22.89c9.421-4.93,16.996-13.96,21.359-20.077
		C1125.064,477.482,1123.449,475.147,1121.364,475.682z M657.884,730.383c6.942-13.017-17.212-53.658-24.01-47.439
		c0,0-12.167,31.24-23.439,40.496C599.163,732.697,650.94,743.399,657.884,730.383z M193.088,651.152
		c-1.702,1.45-41.884,35.747-59.742,58.912c-2.766,3.595-2.102,8.758,1.493,11.529c1.498,1.15,3.263,1.707,5.013,1.707
		c2.461,0,4.896-1.102,6.517-3.199c16.803-21.806,56.969-56.088,57.376-56.43c3.456-2.942,3.869-8.132,0.931-11.588
		C201.733,648.632,196.549,648.209,193.088,651.152z M116.237,651.2c-1.305,1.123-31.933,27.648-38.123,33.356
		c-3.333,3.076-3.542,8.276-0.466,11.614c1.621,1.755,3.825,2.643,6.04,2.643c1.995,0,3.991-0.722,5.574-2.177
		c5.997-5.537,37.411-32.736,37.727-33.014c3.435-2.969,3.809-8.159,0.835-11.588C124.861,648.6,119.661,648.22,116.237,651.2z
		 M260.073,658.572c-3.199,3.039-31.404,29.895-36.716,36.229c-2.916,3.478-2.462,8.661,1.016,11.577
		c1.541,1.289,3.413,1.921,5.275,1.921c2.348,0,4.675-1,6.301-2.937c3.574-4.258,23.155-23.192,35.443-34.881
		c3.29-3.124,3.424-8.33,0.294-11.614C268.557,655.57,263.358,655.437,260.073,658.572z M1032.977,651.152
		c-1.702,1.45-41.878,35.747-59.736,58.912c-2.773,3.595-2.108,8.752,1.486,11.524c1.499,1.155,3.259,1.712,5.013,1.712
		c2.462,0,4.896-1.102,6.51-3.199c16.815-21.806,56.976-56.088,57.384-56.43c3.456-2.942,3.868-8.132,0.931-11.588
		C1041.627,648.632,1036.433,648.209,1032.977,651.152z M956.127,651.2c-1.305,1.123-31.934,27.648-38.124,33.356
		c-3.331,3.076-3.54,8.276-0.466,11.614c1.622,1.755,3.827,2.643,6.041,2.643c1.996,0,3.991-0.722,5.575-2.177
		c5.996-5.537,37.41-32.736,37.727-33.014c3.434-2.969,3.808-8.159,0.834-11.588C964.75,648.6,959.557,648.22,956.127,651.2z
		 M1099.968,658.572c-3.199,3.039-31.409,29.895-36.716,36.234c-2.916,3.478-2.462,8.661,1.022,11.572
		c1.534,1.289,3.408,1.921,5.268,1.921c2.348,0,4.681-1,6.303-2.942c3.568-4.258,23.154-23.186,35.442-34.876
		c3.29-3.124,3.424-8.33,0.294-11.614C1108.446,655.57,1103.253,655.437,1099.968,658.572z M729.128,825.951
		c1.659,2.177,2.119,5.04,1.231,7.629c-7.238,21.142-72.512,206.567-135.098,206.567c-62.583,0-127.856-185.425-135.094-206.567
		c-0.888-2.589-0.423-5.457,1.236-7.634c1.658-2.183,4.35-3.386,7.035-3.226c1.251,0.075,126.711,7.458,253.667,0
		C724.837,822.555,727.47,823.769,729.128,825.951z M657.936,957.478c5.044-8.944,10.015-18.402,14.841-28.153
		c-0.307-4.508-1.806-9.561-4.482-14.417c-4.959-8.998-21.357-30.467-66.408-35.4c-59.214-6.473-89.241,13.375-97.895,20.472
		c5.732,12.889,11.815,25.716,18.102,37.97c24.206,47.181,51.419,85.763,73.165,85.763
		C613.919,1023.713,636.59,995.317,657.936,957.478z M334.526,204.87c0.53,0.027,53.594,2.76,87.314,21.159
		c14.081,7.693,28.125,9.068,36.62,3.579c4.532-2.921,6.81-7.447,6.414-12.748c-0.926-12.331-15.777-25.866-40.76-37.133
		c-67.889-30.606-180.459-50.165-373.262,132.938c-1.044,0.99-1.14,2.616-0.225,3.729c0.541,0.653,1.322,0.995,2.114,0.995
		c0.557,0,1.113-0.166,1.594-0.508C56.009,315.68,222.811,197.412,334.526,204.87z M1149.149,312.663
		c-192.808-183.108-305.375-163.56-373.263-132.938c-24.984,11.267-39.835,24.802-40.76,37.133
		c-0.397,5.302,1.883,9.827,6.415,12.748c8.495,5.489,22.538,4.114,36.619-3.579c33.697-18.387,86.785-21.132,87.368-21.159
		c111.55-7.527,278.463,110.811,280.137,112.009c0.482,0.342,1.039,0.508,1.594,0.508c0.793,0,1.573-0.342,2.114-0.995
		C1150.288,315.279,1150.192,313.653,1149.149,312.663z"/>
</g>
</svg>
